inDegrees=no
num_controls=7
num_derivatives=13
num_iterations=276
num_multipliers=7
num_parameters=0
num_slacks=7
num_states=26
objective=0.505424
objective_accelerations=0.042714
objective_balance=0.003765
objective_effort=0.031981
objective_height=0.315334
objective_ligament=0.111631
solver_duration=4109.694080
status=Solve_Succeeded
success=true
DataType=double
version=3
OpenSimVersion=4.5
endheader
time	/jointset/ground_pelvis/pelvis_tilt/value	/jointset/ground_pelvis/pelvis_tx/value	/jointset/ground_pelvis/pelvis_ty/value	/jointset/hip_l/hip_flexion_l/value	/jointset/hip_l/hip_adduction_l/value	/jointset/hip_l/hip_rotation_l/value	/jointset/back/lumbar_extension/value	/jointset/patellofemoral_l/patellar_flexion_l/value	/jointset/knee_l/knee_flexion_l/value	/jointset/knee_l/knee_adduction_l/value	/jointset/knee_l/knee_rotation_l/value	/jointset/ankle_l/ankle_angle_l/value	/jointset/subtalar_l/subtalar_angle_l/value	/jointset/ground_pelvis/pelvis_tilt/speed	/jointset/ground_pelvis/pelvis_tx/speed	/jointset/ground_pelvis/pelvis_ty/speed	/jointset/hip_l/hip_flexion_l/speed	/jointset/hip_l/hip_adduction_l/speed	/jointset/hip_l/hip_rotation_l/speed	/jointset/back/lumbar_extension/speed	/jointset/patellofemoral_l/patellar_flexion_l/speed	/jointset/knee_l/knee_flexion_l/speed	/jointset/knee_l/knee_adduction_l/speed	/jointset/knee_l/knee_rotation_l/speed	/jointset/ankle_l/ankle_angle_l/speed	/jointset/subtalar_l/subtalar_angle_l/speed	/forceset/tau_hip_flexion_l	/forceset/tau_hip_adduction_l	/forceset/tau_hip_rotation_l	/forceset/tau_knee_flexion_l	/forceset/tau_ankle_angle_l	/forceset/tau_subtalar_angle_l	/forceset/tau_lumbar_extension	lambda_cid13_p0	lambda_cid13_p1	lambda_cid13_p2	lambda_cid13_p3	lambda_cid13_p4	lambda_cid13_p5	lambda_cid14_p0	/jointset/ground_pelvis/pelvis_tilt/accel	/jointset/ground_pelvis/pelvis_tx/accel	/jointset/ground_pelvis/pelvis_ty/accel	/jointset/hip_l/hip_flexion_l/accel	/jointset/hip_l/hip_adduction_l/accel	/jointset/hip_l/hip_rotation_l/accel	/jointset/back/lumbar_extension/accel	/jointset/patellofemoral_l/patellar_flexion_l/accel	/jointset/knee_l/knee_flexion_l/accel	/jointset/knee_l/knee_adduction_l/accel	/jointset/knee_l/knee_rotation_l/accel	/jointset/ankle_l/ankle_angle_l/accel	/jointset/subtalar_l/subtalar_angle_l/accel	gamma_cid13_p0	gamma_cid13_p1	gamma_cid13_p2	gamma_cid13_p3	gamma_cid13_p4	gamma_cid13_p5	gamma_cid14_p0
0.5	-0.1355445559259332	-0.0608392076181939	0.8127402495333269	0.9502153034324946	-0.3141879146475641	-0.119422715213209	-0.7936655304096729	0.8367119268359713	0.836711926835969	-0.07709206753184417	-0.170820118973759	0.08396963726183092	0.007945602336870838	-0.2826887604238564	-0.1800866245876261	-0.3987416206027647	1.682177969209724	-0.1021947972536682	0.5913644185834391	-0.8574783093507927	1.633492138115577	1.633492138115577	-0.01417270645214365	0.01522935080370584	0.3099925902839599	-0.01041496704913608	-0.3026125521531449	0.02823764799619708	-0.007156584705712482	-0.2057038496193964	0.1019231572477706	0.04970221146438083	0.3443370747089412	-11.46240109260564	-20.54431342669827	3.923995664451014	-8.447337837603433	-702.9583729572742	-72.52765833100453	-12.99238769027835	0.3572236306968506	0.7132990155543316	-0.147873566344863	-1.48908504335812	0.4450410465086301	-0.2664461252002046	1.969271109373731	-1.212464076247938	-1.212464076247938	-0.1805056897079842	-0.1030132262972388	-0.01221219755897944	0.4626278943607151	-2.340953598367335e-07	-3.743930201720978e-07	9.728031046166034e-07	6.595013093948747e-08	-2.238558527341023e-07	3.073171028898649e-08	-1.959441251828404e-07
0.51	-0.1383534860784609	-0.06260443224697396	0.8087466396602957	0.9669589786360716	-0.3151885769470072	-0.1135232625822798	-0.8021408653909242	0.8529814795832159	0.8529814795832154	-0.07724527763322159	-0.170673804820417	0.08706693296526412	0.007862865485577641	-0.279104158973574	-0.1729633919921386	-0.3998605900659234	1.666241445484267	-0.09795982530267595	0.5883693671440956	-0.8374715679033837	1.619975900338227	1.619975900338227	-0.0165142012102246	0.01398179201820223	0.3093004587792548	-0.006209005786026313	-0.310461078373664	0.02870315488966939	-0.007160388164658028	-0.2086520419956018	0.1009327991525737	0.04996539508621479	0.3517450660130378	-12.13531222339671	-20.50245719042615	3.873534238925384	-8.005747510632512	-708.7387575905735	-72.41603682365277	-12.35863909895223	0.3580197238153006	0.7110857401202352	-0.07598762388299171	-1.693310666519382	0.4093172942356062	-0.339720508908089	2.033943511837955	-1.48754162009229	-1.487541620092346	-0.2677436486204723	-0.1431803354587858	-0.1226444658462806	0.3880313738655478	-2.235194565755401e-07	-3.180522660454538e-07	9.522118832830141e-07	6.623146409633807e-08	-2.01556872179023e-07	4.993037118214941e-08	-1.868977564241458e-07
0.52	-0.1411267819521616	-0.06429857447808431	0.8047454242951165	0.9835338136765182	-0.3161475711219723	-0.1076584976368652	-0.8104126193878188	0.8691026023543642	0.8691026023543653	-0.07742325713813226	-0.1705414768810865	0.09015232118586627	0.007819878473231427	-0.2755619046584372	-0.1658701450536804	-0.4002627190323465	1.648409936583615	-0.09386117235804035	0.5844268814804854	-0.8167621124794355	1.603806142896327	1.603806142896327	-0.01912658715879842	0.01243210800142316	0.3076110937177495	-0.00246499925973893	-0.3183096045941832	0.0291686617831417	-0.007164191623603493	-0.2116002343718072	0.09994244105737674	0.05022857870804873	0.3591530573171345	-12.8095004542545	-20.46231859876646	3.825565201099711	-7.603215186750063	-714.5690522795139	-72.34901620157363	-11.72245273415335	0.3487542036676979	0.7073018841484601	-0.004505466997725619	-1.868082078397017	0.4177772452372976	-0.4559329700535471	2.109813904681602	-1.74316800915787	-1.74316800915787	-0.2346839278065584	-0.1634382725524206	-0.2116589089190397	0.3702369469962374	-2.047900602551711e-07	-2.668382249677027e-07	9.019784502444858e-07	5.879793156115853e-08	-1.685551018839599e-07	6.374200961232436e-08	-1.73986323845803e-07
0.53	-0.1438647727718463	-0.065921980075532	0.8007436618291833	0.9999215255496368	-0.3170661010023977	-0.1018375468762027	-0.8184739732724311	0.885049935970994	0.885049935970995	-0.07762809232384101	-0.1704258570829704	0.09321644760464608	0.007812404976393811	-0.2720269625693261	-0.1588199170069404	-0.3999791246479414	1.628862215952412	-0.08986142805526652	0.5796354767990344	-0.7954201923530493	1.585318928190429	1.585318928190429	-0.02184668282034276	0.01066088556840321	0.3051005134113515	0.0009176811262847855	-0.3258014118661686	0.02944444463884661	-0.007139228647759856	-0.2143745824585798	0.09886203093537321	0.05042251781728294	0.3661241664895304	-13.4794391302434	-20.39348814891808	3.773748393882812	-7.20757010563957	-719.8511402838533	-72.2208917787765	-11.08574820539586	0.3572354501053335	0.7025528579650467	0.06135907294376721	-2.038677498271658	0.3884937398429738	-0.5100600034357055	2.159651880112678	-1.952712596271211	-1.952712596271192	-0.2916330946209897	-0.1884306731461581	-0.2878208432787374	0.3143273577037482	-1.864339683688092e-07	-2.195208633725838e-07	8.483060710895608e-07	5.268409555882777e-08	-1.402703513063136e-07	7.584381238905652e-08	-1.607422734843184e-07
0.54	-0.1465671399229255	-0.06747514947390669	0.796748048743451	1.016105648127885	-0.3179451492963863	-0.09606837331960355	-0.8263192537930804	0.9008021545615716	0.9008021545615726	-0.07786032060802374	-0.1703288427980784	0.0962520555700062	0.007837167038076097	-0.2684371709373148	-0.1518229052390695	-0.3990328429921708	1.607692077609622	-0.08596485507067077	0.5740714406677905	-0.773547439686841	1.564783137685913	1.564783137685913	-0.02460520685359094	0.008711005356608254	0.3019074030338116	0.003982112444240906	-0.3332932191381541	0.02972022749455153	-0.007114265671916157	-0.21714893054536	0.0977816208133697	0.05061645692651735	0.3730952756619233	-14.15331834847438	-20.3259611611503	3.72441733930299	-6.838494506625963	-725.2157508868468	-72.13681600835972	-10.45060946471758	0.3597241122477083	0.6966586283746257	0.1280319872753521	-2.192565620714324	0.3971429816016793	-0.6104592600120975	2.215980412646005	-2.152883168881523	-2.152883168881524	-0.2423696021472377	-0.1991698283074196	-0.3481649231473884	0.3065871333827182	-1.684908941541146e-07	-1.765147216305898e-07	7.908289004867078e-07	4.803034933752123e-08	-1.1720443105432e-07	8.605388210240515e-08	-1.471302204691448e-07
